<svg width="30" height="30" viewBox="0 0 30 30" fill="none" xmlns="http://www.w3.org/2000/svg">
<path d="M24 0H6C4.4087 0 2.88258 0.615648 1.75736 1.71151C0.632141 2.80737 0 4.29367 0 5.84346V23.3738C0 24.9236 0.632141 26.4099 1.75736 27.5058C2.88258 28.6016 4.4087 29.2173 6 29.2173H24C25.5913 29.2173 27.1174 28.6016 28.2426 27.5058C29.3679 26.4099 30 24.9236 30 23.3738V5.84346C30 4.29367 29.3679 2.80737 28.2426 1.71151C27.1174 0.615648 25.5913 0 24 0ZM25.65 16.0695C25.2687 16.9063 24.7633 17.6839 24.15 18.3777C23.169 19.4613 22.0729 20.4407 20.88 21.2994C19.499 22.3561 18.059 23.33 16.56 24.2211C16.095 24.4987 15.615 24.747 15.135 24.9808C14.9256 25.1009 14.688 25.1663 14.445 25.1707C14.3909 25.1806 14.3352 25.1778 14.2825 25.1624C14.2297 25.1471 14.1815 25.1197 14.1419 25.0825C14.1023 25.0453 14.0723 24.9995 14.0546 24.9487C14.0369 24.898 14.0319 24.8439 14.04 24.7909C14.026 24.5914 14.026 24.3913 14.04 24.1919C14.1395 23.7403 14.1947 23.2805 14.205 22.8187C14.209 22.6811 14.1713 22.5453 14.0966 22.4284C14.0219 22.3115 13.9135 22.2186 13.785 22.1613C13.5349 22.0416 13.2663 21.9626 12.99 21.9276C11.5466 21.7247 10.1476 21.2903 8.85 20.642C7.6274 20.0336 6.54132 19.1943 5.655 18.1731C4.74824 17.1436 4.12384 15.9073 3.84 14.5794C3.84 14.2726 3.75 13.9659 3.72 13.6445C3.69 13.3231 3.72 13.0455 3.72 12.7387C3.76504 11.931 3.94752 11.1362 4.26 10.3867C4.66677 9.38611 5.25629 8.46551 6 7.66954C7.06412 6.58497 8.34559 5.72477 9.765 5.14224C10.6595 4.7933 11.5898 4.53863 12.54 4.38259L13.68 4.23651H16.215C17.9338 4.37417 19.6067 4.84608 21.135 5.62433C22.2 6.15754 23.169 6.8573 24 7.69875C24.8719 8.58541 25.5236 9.65486 25.905 10.825C26.07 11.2969 26.1765 11.7892 26.22 12.2859V13.2354C26.2385 14.2088 26.0442 15.1748 25.65 16.0695Z" fill="#3F3D3D"/>
<path d="M18.3604 10.9271V15.6456C18.3604 15.8063 18.3604 15.8648 18.1204 15.8648H17.3554C17.3203 15.866 17.2854 15.8586 17.2539 15.8433C17.2225 15.828 17.1955 15.8052 17.1754 15.7771L16.0504 14.3163L15.0004 12.9284V12.8262V15.6603C15.0004 15.8648 15.0004 15.9086 14.7454 15.9086H14.0554C14.0061 15.9162 13.9555 15.9064 13.9129 15.881C13.8703 15.8555 13.8384 15.8161 13.8229 15.7698C13.8128 15.7392 13.8102 15.7066 13.8154 15.6749V10.9563C13.8132 10.9269 13.8175 10.8975 13.828 10.8699C13.8385 10.8423 13.855 10.8173 13.8764 10.7965C13.8977 10.7757 13.9234 10.7596 13.9517 10.7494C13.9801 10.7391 14.0103 10.735 14.0404 10.7371H14.8654C14.8931 10.7415 14.9194 10.7515 14.9427 10.7666C14.966 10.7818 14.9857 10.8016 15.0004 10.8248L16.6504 13.1476L17.0854 13.7173V13.7903V10.9563C17.0854 10.7664 17.1604 10.6933 17.3554 10.6933H18.0304C18.2704 10.6933 18.3604 10.7664 18.3604 10.9271ZM20.3704 11.9789V12.5924C20.3704 12.7093 20.3704 12.7093 20.4754 12.7093H22.5004C22.6954 12.7093 22.7554 12.7823 22.7554 12.9723V13.6443C22.7606 13.6761 22.7579 13.7087 22.7476 13.7393C22.7374 13.7699 22.7199 13.7978 22.6965 13.8206C22.6731 13.8433 22.6445 13.8604 22.613 13.8704C22.5816 13.8804 22.5481 13.883 22.5154 13.878H20.4754C20.3704 13.878 20.3704 13.878 20.3704 13.9949V14.6084C20.3704 14.7253 20.3704 14.7253 20.4754 14.7253H22.5004C22.6804 14.7253 22.7404 14.7253 22.7404 14.9736V15.6456C22.7404 15.8209 22.7404 15.8794 22.5004 15.8794H19.4254C19.1554 15.8794 19.1704 15.8794 19.1704 15.6456V10.9563C19.1704 10.781 19.2454 10.7079 19.4254 10.7079H22.4254C22.6054 10.7079 22.6654 10.781 22.6654 10.9563V11.6867C22.6654 11.8474 22.6654 11.9204 22.4404 11.9204H20.4754C20.3704 11.8766 20.3704 11.8766 20.3704 11.9789ZM10.9954 14.9298V15.6895C10.9954 15.8209 10.9204 15.8794 10.7854 15.8794H7.68043C7.50043 15.8794 7.44043 15.8794 7.44043 15.6456V10.9563C7.44043 10.7664 7.44043 10.7079 7.69543 10.7079H8.38543C8.56543 10.7079 8.62543 10.781 8.62543 10.9417V14.6815H10.8304C10.8741 14.6861 10.9148 14.7049 10.9461 14.7348C10.9774 14.7648 10.9974 14.8041 11.0029 14.8465C11.0088 14.8744 11.0062 14.9034 10.9954 14.9298ZM12.9154 10.9417V15.6456C12.9154 15.8209 12.9154 15.8794 12.6604 15.8794C12.4204 15.894 12.1804 15.894 11.9404 15.8794C11.9077 15.8844 11.8743 15.8818 11.8428 15.8718C11.8114 15.8618 11.7828 15.8447 11.7594 15.8219C11.736 15.7992 11.7185 15.7713 11.7082 15.7407C11.698 15.71 11.6953 15.6775 11.7004 15.6456V10.9417C11.6925 10.9033 11.6952 10.8636 11.7084 10.8266C11.7216 10.7896 11.7446 10.7567 11.7753 10.7314C11.8059 10.706 11.8429 10.6891 11.8825 10.6824C11.9221 10.6757 11.9628 10.6795 12.0004 10.6933H12.7054C12.7364 10.695 12.7667 10.703 12.7943 10.7167C12.822 10.7304 12.8465 10.7495 12.8662 10.7728C12.8859 10.7961 12.9005 10.8231 12.9089 10.8522C12.9174 10.8813 12.9196 10.9117 12.9154 10.9417Z" fill="#3F3D3D"/>
</svg>
