<svg width="30" height="30" viewBox="0 0 30 30" fill="none" xmlns="http://www.w3.org/2000/svg">
<mask id="mask0_148_1771" style="mask-type:luminance" maskUnits="userSpaceOnUse" x="0" y="0" width="30" height="30">
<path d="M0 0H30V30H0V0Z" fill="white"/>
</mask>
<g mask="url(#mask0_148_1771)">
<path d="M10.9954 15.3298V16.1098C10.9954 16.2448 10.9204 16.3048 10.7854 16.3048H7.68043C7.50043 16.3048 7.44043 16.3048 7.44043 16.0648V11.2498C7.44043 11.0548 7.44043 10.9948 7.69543 10.9948H8.38543C8.56543 10.9948 8.62543 11.0698 8.62543 11.2348V15.0748H10.8304C10.8741 15.0795 10.9148 15.0988 10.9461 15.1296C10.9774 15.1604 10.9974 15.2008 11.0029 15.2443C11.0088 15.2729 11.0062 15.3027 10.9954 15.3298ZM12.9154 11.2348V16.0648C12.9154 16.2448 12.9154 16.3048 12.6604 16.3048C12.4204 16.3198 12.1804 16.3198 11.9404 16.3048C11.9077 16.3099 11.8743 16.3073 11.8428 16.297C11.8114 16.2868 11.7828 16.2692 11.7594 16.2459C11.736 16.2225 11.7185 16.1939 11.7082 16.1624C11.698 16.1309 11.6953 16.0975 11.7004 16.0648V11.2348C11.6925 11.1954 11.6952 11.1546 11.7084 11.1167C11.7216 11.0787 11.7446 11.0449 11.7753 11.0189C11.8059 10.9929 11.8429 10.9755 11.8825 10.9686C11.9221 10.9618 11.9628 10.9656 12.0004 10.9798H12.7054C12.7364 10.9816 12.7667 10.9898 12.7943 11.0038C12.822 11.0179 12.8465 11.0375 12.8662 11.0614C12.8859 11.0854 12.9005 11.1131 12.9089 11.143C12.9174 11.1728 12.9196 11.2041 12.9154 11.2348ZM18.3604 11.2198V16.0648C18.3604 16.2298 18.3604 16.2898 18.1204 16.2898H17.3554C17.3203 16.2911 17.2854 16.2835 17.2539 16.2678C17.2225 16.2521 17.1955 16.2287 17.1754 16.1998L16.0504 14.6998L15.0004 13.2748V13.1698V16.0798C15.0004 16.2898 15.0004 16.3348 14.7454 16.3348H14.0554C14.0061 16.3426 13.9555 16.3326 13.9129 16.3064C13.8703 16.2803 13.8384 16.2399 13.8229 16.1923C13.8128 16.1609 13.8102 16.1275 13.8154 16.0948V11.2498C13.8132 11.2197 13.8175 11.1895 13.828 11.1611C13.8385 11.1328 13.855 11.1071 13.8764 11.0858C13.8977 11.0644 13.9234 11.0479 13.9517 11.0374C13.9801 11.0269 14.0103 11.0226 14.0404 11.0248H14.8654C14.8931 11.0293 14.9194 11.0396 14.9427 11.0551C14.966 11.0706 14.9857 11.091 15.0004 11.1148L16.6504 13.4998L17.0854 14.0848V14.1598V11.2498C17.0854 11.0548 17.1604 10.9798 17.3554 10.9798H18.0304C18.2704 10.9798 18.3604 11.0548 18.3604 11.2198ZM22.7254 11.2498V11.9998C22.7254 12.1648 22.7254 12.2398 22.5004 12.2398H20.4754C20.3704 12.2398 20.3704 12.2398 20.3704 12.3448V12.9748C20.3704 13.0948 20.3704 13.0948 20.4754 13.0948H22.5004C22.6954 13.0948 22.7554 13.1698 22.7554 13.3648V14.0548C22.7606 14.0875 22.7579 14.1209 22.7476 14.1524C22.7374 14.1839 22.7199 14.2125 22.6965 14.2359C22.6731 14.2592 22.6445 14.2768 22.613 14.287C22.5816 14.2973 22.5481 14.2999 22.5154 14.2948H20.4754C20.3704 14.2948 20.3704 14.2948 20.3704 14.4148V14.9998C20.3704 15.1198 20.3704 15.1198 20.4754 15.1198H22.5004C22.6804 15.1198 22.7404 15.1198 22.7404 15.3748V16.0648C22.7404 16.2448 22.7404 16.3048 22.5004 16.3048H19.4254C19.1554 16.3048 19.1704 16.3048 19.1704 16.0648V11.2498C19.1704 11.0698 19.2454 10.9948 19.4254 10.9948H22.4254C22.6654 10.9948 22.7254 11.0698 22.7254 11.2498Z" fill="white"/>
<path d="M24 0H6C4.4087 0 2.88258 0.632141 1.75736 1.75736C0.632141 2.88258 0 4.4087 0 6V24C0 25.5913 0.632141 27.1174 1.75736 28.2426C2.88258 29.3679 4.4087 30 6 30H24C25.5913 30 27.1174 29.3679 28.2426 28.2426C29.3679 27.1174 30 25.5913 30 24V6C30 4.4087 29.3679 2.88258 28.2426 1.75736C27.1174 0.632141 25.5913 0 24 0ZM25.65 16.5C25.2687 17.3592 24.7633 18.1577 24.15 18.87C23.169 19.9827 22.0729 20.9883 20.88 21.87C19.499 22.955 18.059 23.955 16.56 24.87C16.095 25.155 15.615 25.41 15.135 25.65C14.9256 25.7734 14.688 25.8405 14.445 25.845C14.3909 25.8552 14.3352 25.8523 14.2825 25.8365C14.2297 25.8208 14.1815 25.7926 14.1419 25.7545C14.1023 25.7163 14.0723 25.6692 14.0546 25.6171C14.0369 25.565 14.0319 25.5094 14.04 25.455C14.026 25.2502 14.026 25.0448 14.04 24.84C14.1395 24.3763 14.1947 23.9042 14.205 23.43C14.209 23.2887 14.1713 23.1493 14.0966 23.0293C14.0219 22.9092 13.9135 22.8139 13.785 22.755C13.5349 22.6321 13.2663 22.551 12.99 22.515C11.5466 22.3067 10.1476 21.8607 8.85 21.195C7.6274 20.5703 6.54132 19.7085 5.655 18.66C4.74824 17.6029 4.12384 16.3335 3.84 14.97C3.84 14.655 3.75 14.34 3.72 14.01C3.69 13.68 3.72 13.395 3.72 13.08C3.76504 12.2507 3.94752 11.4345 4.26 10.665C4.66677 9.63756 5.25629 8.6923 6 7.875C7.06412 6.76138 8.34559 5.87814 9.765 5.28C10.6595 4.92171 11.5898 4.66022 12.54 4.5L13.68 4.35H16.215C17.9338 4.49135 19.6067 4.9759 21.135 5.775C22.2 6.3225 23.169 7.041 24 7.905C24.8719 8.81541 25.5236 9.91351 25.905 11.115C26.07 11.5995 26.1765 12.105 26.22 12.615V13.59C26.2385 14.5894 26.0442 15.5814 25.65 16.5Z" fill="white"/>
<path d="M18.3604 11.2198V16.0648C18.3604 16.2298 18.3604 16.2898 18.1204 16.2898H17.3554C17.3203 16.2911 17.2854 16.2835 17.2539 16.2678C17.2225 16.2521 17.1955 16.2287 17.1754 16.1998L16.0504 14.6998L15.0004 13.2748V13.1698V16.0798C15.0004 16.2898 15.0004 16.3348 14.7454 16.3348H14.0554C14.0061 16.3426 13.9555 16.3326 13.9129 16.3064C13.8703 16.2803 13.8384 16.2399 13.8229 16.1923C13.8128 16.1609 13.8102 16.1275 13.8154 16.0948V11.2498C13.8132 11.2197 13.8175 11.1895 13.828 11.1611C13.8385 11.1328 13.855 11.1071 13.8764 11.0858C13.8977 11.0644 13.9234 11.0479 13.9517 11.0374C13.9801 11.0269 14.0103 11.0226 14.0404 11.0248H14.8654C14.8931 11.0293 14.9194 11.0396 14.9427 11.0551C14.966 11.0706 14.9857 11.091 15.0004 11.1148L16.6504 13.4998L17.0854 14.0848V14.1598V11.2498C17.0854 11.0548 17.1604 10.9798 17.3554 10.9798H18.0304C18.2704 10.9798 18.3604 11.0548 18.3604 11.2198ZM20.3704 12.2998V12.9298C20.3704 13.0498 20.3704 13.0498 20.4754 13.0498H22.5004C22.6954 13.0498 22.7554 13.1248 22.7554 13.3198V14.0098C22.7606 14.0425 22.7579 14.0759 22.7476 14.1074C22.7374 14.1389 22.7199 14.1675 22.6965 14.1909C22.6731 14.2142 22.6445 14.2318 22.613 14.242C22.5816 14.2523 22.5481 14.2549 22.5154 14.2498H20.4754C20.3704 14.2498 20.3704 14.2498 20.3704 14.3698V14.9998C20.3704 15.1198 20.3704 15.1198 20.4754 15.1198H22.5004C22.6804 15.1198 22.7404 15.1198 22.7404 15.3748V16.0648C22.7404 16.2448 22.7404 16.3048 22.5004 16.3048H19.4254C19.1554 16.3048 19.1704 16.3048 19.1704 16.0648V11.2498C19.1704 11.0698 19.2454 10.9948 19.4254 10.9948H22.4254C22.6054 10.9948 22.6654 11.0698 22.6654 11.2498V11.9998C22.6654 12.1648 22.6654 12.2398 22.4404 12.2398H20.4754C20.3704 12.1948 20.3704 12.1948 20.3704 12.2998ZM10.9954 15.3298V16.1098C10.9954 16.2448 10.9204 16.3048 10.7854 16.3048H7.68043C7.50043 16.3048 7.44043 16.3048 7.44043 16.0648V11.2498C7.44043 11.0548 7.44043 10.9948 7.69543 10.9948H8.38543C8.56543 10.9948 8.62543 11.0698 8.62543 11.2348V15.0748H10.8304C10.8741 15.0795 10.9148 15.0988 10.9461 15.1296C10.9774 15.1604 10.9974 15.2008 11.0029 15.2443C11.0088 15.2729 11.0062 15.3027 10.9954 15.3298ZM12.9154 11.2348V16.0648C12.9154 16.2448 12.9154 16.3048 12.6604 16.3048C12.4204 16.3198 12.1804 16.3198 11.9404 16.3048C11.9077 16.3099 11.8743 16.3073 11.8428 16.297C11.8114 16.2868 11.7828 16.2692 11.7594 16.2459C11.736 16.2225 11.7185 16.1939 11.7082 16.1624C11.698 16.1309 11.6953 16.0975 11.7004 16.0648V11.2348C11.6925 11.1954 11.6952 11.1546 11.7084 11.1167C11.7216 11.0787 11.7446 11.0449 11.7753 11.0189C11.8059 10.9929 11.8429 10.9755 11.8825 10.9686C11.9221 10.9618 11.9628 10.9656 12.0004 10.9798H12.7054C12.7364 10.9816 12.7667 10.9898 12.7943 11.0038C12.822 11.0179 12.8465 11.0375 12.8662 11.0614C12.8859 11.0854 12.9005 11.1131 12.9089 11.143C12.9174 11.1728 12.9196 11.2041 12.9154 11.2348Z" fill="white"/>
</g>
</svg>
